<?xml version="1.0" encoding="utf-8"?>
<!-- Generator: Adobe Illustrator 25.4.1, SVG Export Plug-In . SVG Version: 6.00 Build 0)  -->
<svg version="1.1" id="Layer_1" xmlns="http://www.w3.org/2000/svg" xmlns:xlink="http://www.w3.org/1999/xlink" x="0px" y="0px"
	 viewBox="0 0 714 714" style="enable-background:new 0 0 714 714;" xml:space="preserve">
<style type="text/css">
	.st0{fill:#E5CB98;}
	.st1{fill:#AFA79A;}
	.st2{fill:#FCE9C3;}
	.st3{fill:#514639;}
	.st4{fill:#70592F;}
	.st5{fill:#808A8C;}
	.st6{fill:#C2EDF9;}
	.st7{fill:#FF6161;}
	.st8{fill:#727B87;}
	.st9{fill:#6D7F99;}
	.st10{fill:#6AACC6;}
</style>
<g id="Layer_6">
	<path class="st0" d="M498.7791138,344.4831543l-12.7363281-14.706543l-1.03125-9.9926758
		c-0.3359375-3.1000977-1.7294922-6.015625-3.9208984-8.2050781l-7.4726562-7.4731445
		c-2.5029297-3.1640625-7.1621094-6.4941406-15.6816406-6.4941406c-2.7011719,0-5.7363281,0.3251953-9.1464844,0.9838867V207.369873
		c0-0.7744141-0.0791016-1.3803711-0.1152344-1.6552734l-0.0400391-0.4272461l-0.0898438-0.4599609
		c-0.1914062-1.0234375-0.4746094-1.8232422-0.6669922-2.3310547l-0.6601562-2.0209961l-0.4472656-0.4477539l-5.1503906-11.0615234
		v-54.8061523c0-7.5209961-6.1191406-13.6401367-13.640625-13.6401367h-37.6601562
		c-7.5205078,0-13.6396484,6.1191406-13.6396484,13.6401367v53.9458008l-7.5634766,12.1738281
		c-0.3076172,0.5078125-0.5332031,0.9677734-0.6865234,1.3017578c-0.0390625,0.0795898-0.2832031,0.5874023-0.2832031,0.5874023
		l-0.1865234,0.5253906c-0.1650391,0.4619141-0.2890625,0.8964844-0.4082031,1.3662109l-0.1113281,0.4350586l-0.1113281,0.6142578
		l-0.0322266,0.2084961c-0.0537109,0.3540039-0.1669922,1.0908203-0.1669922,2.0517578v26.8701172h-3.8701172
		c-4.3642578,0-8.5605469,1.4658203-11.9541016,4.0698242h-28.5761719c-2.6748047,0-5.2734375,0.777832-7.515625,2.2495117
		l-0.2050781,0.1376953c-3.6708984,2.5141602-22.9775391,16.2817383-42.6425781,40.4995117
		c-19.5410156,24.0678711-42.8359375,63.2602539-42.8359375,113.293457c0,59.7490234,17.9472656,92.90625,28.1201172,106.8867188
		c-4.7431641,8.2529297-9.0175781,15.8212891-11.9541016,21.0527344h-6.9960938
		c-15.3398438,0-27.8203125,12.484375-27.8203125,27.8300781v15.390625c0,15.3457031,12.4804688,27.8300781,27.8203125,27.8300781
		h222.8496094c15.3457031,0,27.8300781-12.484375,27.8300781-27.8300781v-15.390625
		c0-15.3457031-12.484375-27.8300781-27.8300781-27.8300781h-0.9804688
		c-1.3076172-8.3007812-8.5175781-14.6699219-17.1894531-14.6699219h-57.2099609
		c-0.640625,0-1.2744141,0.0351562-1.8974609,0.1025391c-0.0390625-1.3847656-0.234375-2.7490234-0.578125-4.0703125
		c0.3876953-1.4873047,0.5859375-3.0283203,0.5859375-4.5917969v-5.2216797
		c0.6210938,0.0673828,1.2509766,0.1015625,1.8896484,0.1015625h57.2099609c9.5947266,0,17.4003906-7.8056641,17.4003906-17.4003906
		v-7.9492188c0-1.5048828-0.1923828-2.9667969-0.5537109-4.3603516H473.43927
		c12.0097656,0,21.7802734-9.7666016,21.7802734-21.7705078v-35.3798828c0-12.0039062-9.7705078-21.7695312-21.7802734-21.7695312
		h-5.8974609c0.9941406-1.4189453,1.7890625-2.984375,2.3574219-4.6660156
		c0.1347656-0.3974609,0.2558594-0.7978516,0.3632812-1.1992188c2.1533203,0.9042969,4.4912109,1.3847656,6.8867188,1.3847656
		c4.2802734,0,8.4111328-1.5429688,11.6181641-4.3310547l8.1894531-7.0947266
		c3.5996094-3.09375,5.7714844-7.4121094,6.1162109-12.1635742
		C503.4158325,352.6345215,501.883606,348.0461426,498.7791138,344.4831543z M309.3494263,356.048584
		c3.1650391,0,7.8505859,1.7875977,12.2861328,4.6796875c0.5693359,0.4287109,1.1669922,0.8476562,1.7841797,1.2490234
		c0.5683594,0.4072266,1.1689453,0.7705078,1.7949219,1.0849609c4.6923828,2.6298828,9.9785156,4.0175781,15.3154297,4.0175781
		c2.3583984,0,4.6767578-0.2597656,6.9296875-0.7695312c3.3017578,4.1982422,8.4267578,6.8994141,14.1699219,6.8994141h14.6699219
		c3.0498047,0,5.9257812-0.7578125,8.4501953-2.0957031l2.7197266,1.9785156c0,0,0,12.3505859,0,12.3574219h-54.8105469
		c-12.0039062,0-21.7695312,9.765625-21.7695312,21.7695312v23.8339844
		c-1.6435547,0.3886719-2.8935547,0.5029297-3.7958984,0.5029297c-1.3486328,0-2.3876953-0.2402344-3.1660156-0.7285156
		c-1.2890625-0.8115234-7.7177734-6.1552734-7.7177734-31.7382812c0-21.6542969,0.4111328-32.4736328,9.6572266-41.7348633
		C306.5457153,356.6765137,307.4373169,356.048584,309.3494263,356.048584z"/>
	<g>
		<g>
			<path class="st1" d="M434.7480774,454.3699951v4.230011c0,1.5099792-1.2200012,2.7399902-2.7200012,2.7399902h-34.4899902
				c-1.5100098,0-2.730011-1.230011-2.730011-2.7399902v-4.230011H434.7480774z"/>
			<rect x="352.9680786" y="454.3699951" class="st1" width="8.9899998" height="17.1399994"/>
			<path class="st1" d="M467.9680786,322.8800049l0.6400146,6.2399902c-1.8300171,0.0100098-3.5899963,0.6600037-5,1.8800049
				l-8.2000122,7.1300049c-2.480011,2.1300049-3.2600098,5.4899902-2.25,8.3999939l-4.1099854,2.4500122
				c-2.2000122-3.7799988-7-5.2700195-10.980011-3.3099976l-8.5700073,4.2299805
				c-2.7999878,1.3800049-4.5,4.1300049-4.6600037,7.0500183l-2.0799866,0.5999756
				c-1.4899902-2.6499939-4.2999878-4.4499817-7.5499878-4.4499817h-9.1100159c-3.8999939,0-7.2099915,2.6099854-8.269989,6.1699829
				l-2.1300049-1.5499878v-8.0700073c0.4499817,0.0299988,0.9100037,0.0400085,1.3699951,0.0400085
				c2.8200073,0,5.8699951-0.519989,8.5-1.0700073c7.5899963-1.5899963,17.1199951-4.8299866,26.8399963-9.1199951
				s18.5400085-9.1600037,24.8200073-13.6900024c2.4899902-1.7799988,5.2900085-4,7.2600098-6.4100037L467.9680786,322.8800049z"/>
			<path class="st1" d="M485.7180786,355.7900085c0.1000061,0.1000061,0.1300049,0.2200012,0.1199951,0.3500061
				c0,0.1299744-0.0599976,0.2399902-0.1600037,0.3199768l-8.2199707,7.1199951
				c-0.1900024,0.1800232-0.4900208,0.1600037-0.6700134-0.039978l-16.6799927-19.25
				c-0.1600037-0.2000122-0.1400146-0.5,0.0499878-0.6700134l8.2200012-7.1300049
				c0.0899963-0.0699768,0.1900024-0.1099854,0.3099976-0.1099854c0.0100098,0,0.0299988,0,0.0400085,0
				c0.1300049,0.0100098,0.230011,0.0700073,0.3299866,0.1699829L485.7180786,355.7900085z"/>
			<path class="st1" d="M453.4880981,374.3699951c0.1699829,0.3399963,0.1299744,0.6600037,0.0599976,0.8600159
				c-0.0800171,0.2099915-0.2200012,0.4799805-0.5800171,0.6499939l-8.5700073,4.2299805
				c-0.5599976,0.2800293-1.25,0.0500183-1.519989-0.519989l-10.6799927-21.6600037
				c-0.2799988-0.5499878-0.0500183-1.2399902,0.5100098-1.519989l8.5799866-4.2200012
				c0.1600037-0.0800171,0.3399963-0.1199951,0.5-0.1199951c0.4200134,0,0.8200073,0.2399902,1.019989,0.6300049
				L453.4880981,374.3699951z"/>
			<polygon class="st1" points="428.6180725,321.1099854 423.5780945,329.2200012 390.2480774,329.2200012 386.4680786,321.1099854 
							"/>
			<path class="st1" d="M416.5680847,361.730011v23.6999817c0,0.75-0.6099854,1.3500061-1.3599854,1.3500061h-9.1100159
				c-0.75,0-1.3599854-0.6000061-1.3599854-1.3500061V361.730011c0-0.75,0.6099854-1.3600159,1.3599854-1.3600159h9.1100159
				C415.9580994,360.3699951,416.5680847,360.980011,416.5680847,361.730011z"/>
			<path class="st1" d="M377.1280823,317.4700012v37.6300049c0,0.4599915-0.3699951,0.8299866-0.8299866,0.8299866h-14.6700134
				c-0.4100037,0-0.75-0.3299866-0.75-0.7399902v-12.8600159c0.7000122-2.1099854,1.0800171-4.3499756,1.0800171-6.6899719
				c0-2.3400269-0.3800049-4.5800171-1.0800171-6.6900024v-27.7700195c2.3099976,0.7000122,4.75,1.0899963,7.2900085,1.0899963
				c3.1600037,0,6.1799927-0.5999756,8.9599915-1.6799927V317.4700012z"/>
			<path class="st1" d="M377.1280823,251.5099945V254.5c-2.7799988-1.0800018-5.7999878-1.6799927-8.9599915-1.6799927
				c-2.5400085,0-4.980011,0.3799896-7.2900085,1.0899963v-0.0200043c0-1.3099976,1.0700073-2.3800049,2.3800049-2.3800049
				H377.1280823z"/>
		</g>
		<g>
			<path class="st2" d="M473.4380493,402.7199707H332.65802c-2.4799805,0-4.5,2.0300293-4.5,4.5v35.3800049
				c0,2.4700317,2.0200195,4.5,4.5,4.5h16.6699219h16.2700195h25.5700684h47.2199707h35.0500488c2.4899902,0,4.5-2.0299683,4.5-4.5
				v-35.3800049C477.9380493,404.75,475.9280396,402.7199707,473.4380493,402.7199707z"/>
			<path class="st2" d="M461.5481567,539.7000122h-14.8400879c-1,0.5099487-2.130127,0.7999878-3.3300781,0.7999878h-57.2099609
				c-1.1899414,0-2.3098145-0.2900391-3.3098145-0.7999878h-16.8100586h-17.1601562h-95.1799316l-0.0100098,0.0099487
				c-0.0100098,0-0.0100098-0.0099487-0.0300293-0.0099487h-14.9699707c-5.8200684,0-10.5400391,4.7399902-10.5400391,10.5599976
				v15.3899536c0,5.8099976,4.7199707,10.5500488,10.5400391,10.5500488h222.8500977
				c5.8100586,0,10.5498047-4.7400513,10.5498047-10.5500488v-15.3899536
				C472.0979614,544.4400024,467.3582153,539.7000122,461.5481567,539.7000122z"/>
			<path class="st2" d="M431.5181274,211.0100098H384.40802v36.8599854v11.0499878
				c5.1899414,4.539978,8.4899902,11.2000122,8.4899902,18.6300049c0,7.4199829-3.3000488,14.0800171-8.4899902,18.6199951
				v17.6599731h47.1101074V211.0100098z"/>
			<polygon class="st2" points="425.6680298,195.6300049 392.3479614,195.6300049 387.3081665,203.7399902 429.4480591,203.7399902 
							"/>
			<rect x="393.9580688" y="137.7999878" class="st2" width="30.3898926" height="50.5599976"/>
			<path class="st2" d="M282.5181274,478.8999634c13.579834-22.1599731,22.3200684-26.5,32.8098145-26.5
				c3.6501465,0,6.8300781,0.7900391,9.5400391,2.3600464l2.2202148-1.7900391
				c-2.7602539-1.5-4.8701172-4.0700073-5.7402344-7.1599731c-5.1899414,2.0199585-9.9599609,3.0299683-14.2998047,3.0299683
				c-4.6000977,0.0100098-8.7099609-1.1300049-12.3100586-3.3899536
				c-10.4899902-6.6000366-15.8100586-22.2000122-15.8100586-46.3600464c0-21.9099731,0-39.2199707,14.7299805-53.9400024
				c8.0500488-8.0499878,18.0500488-7.3200073,26.0300293-4.5700073c-0.3798828-1.5899658-0.5998535-3.2299805-0.5998535-4.9399414
				c0-11.8100586,9.619873-21.4300537,21.4399414-21.4300537c4.9199219,0,9.4499512,1.6800537,13.0800781,4.4900513v-21.1800537
				c-6.1601562-4.5099487-10.170166-11.7799683-10.170166-19.9699707c0-8.2000122,4.0100098-15.4700317,10.170166-19.9700317v-2
				H323.867981c-4.0297852,2.8800049-21.25,15.710022-38.2299805,36.6800537
				c-17.7199707,21.8599854-38.829834,57.3499756-38.829834,102.2299805c0,59.7799683,19.1799316,89.7299805,26.8098145,99.2700195
				C276.6680298,488.5799561,279.7080688,483.4799805,282.5181274,478.8999634z"/>
			<path class="st2" d="M315.3279419,459.6699829c-4.6599121,0-9.2597656,0.8200073-15.8498535,8.0499878
				c-0.2099609,0.2300415-0.4199219,0.4700317-0.6398926,0.7200317c-2.9301758,3.3499756-6.2402344,7.9400024-10.1201172,14.2600098
				c-3.5300293,5.7599487-7.4399414,12.3499756-11.2600098,18.9199829c-0.0500488,0.0999756-0.119873,0.2099609-0.1799316,0.3099976
				c-6.9799805,11.9899902-13.6699219,23.8599854-17.3901367,30.5h69.8400879v-41.7200317
				c0-5.9199829-0.380127-10.6999512-1.0200195-14.5699463c-0.0400391-0.2600098-0.0800781-0.5100098-0.130127-0.7600098
				C325.7481079,459.6699829,318.4680786,459.6699829,315.3279419,459.6699829z M326.117981,476.3800049
				c0.1000977,0.7199707,0.1601562,1.4400024,0.1601562,2.1799927c0,7.9099731-6.4301758,14.3399658-14.3400879,14.3399658
				c-7.8898926,0-14.3200684-6.4299927-14.3200684-14.3399658c0-3.7000122,1.4101562-7.0800171,3.7202148-9.6199951
				c0.1599121-0.1799927,0.329834-0.3600464,0.5-0.5300293c2.5998535-2.5800171,6.1699219-4.1799927,10.0998535-4.1799927
				c6.920166,0,12.7099609,4.9299927,14.0500488,11.4500122C326.038147,475.9099731,326.0779419,476.1499634,326.117981,476.3800049
				z"/>
		</g>
		<g>
			<path class="st3" d="M366.9980774,508.3900146v23.0799561c0,0.5300293-0.4199829,0.960022-0.9499817,0.960022H348.888092
				c-0.5299988,0-0.960022-0.4299927-0.960022-0.960022v-23.0799561c0-0.5300293,0.4300232-0.960022,0.960022-0.960022h17.1600037
				C366.5780945,507.4299927,366.9980774,507.8599854,366.9980774,508.3900146z"/>
			<path class="st3" d="M366.9980774,479.7399902v19.460022c0,0.5299988-0.4199829,0.9499817-0.9499817,0.9499817H348.888092
				c-0.5299988,0-0.960022-0.4199829-0.960022-0.9499817v-19.460022c0-0.5299988,0.4300232-0.9599915,0.960022-0.9599915h0.4400024
				h16.269989h0.4500122C366.5780945,478.7799988,366.9980774,479.2099915,366.9980774,479.7399902z"/>
			<path class="st3" d="M403.5180969,336.4899902h17.039978c-12.0999756,4.5700073-20.5599976,6.0700073-24.1399841,5.9500122
				C397.3780823,341.2600098,399.4180908,339.3099976,403.5180969,336.4899902z"/>
			<path class="st3" d="M438.1480713,319.5400085c10.9200134-3.8300171,17.6900024-4.7799988,20.7000122-4.6800232
				c-2.8099976,3.3300171-12.269989,10.3500061-28.7999878,17.7200012L438.1480713,319.5400085z"/>
			<path class="st3" d="M340.5280762,321.480011c7.8099976,0,14.1600037,6.3599854,14.1600037,14.1600037
				c0,7.8199768-6.3500061,14.1599731-14.1600037,14.1599731c-2.6499939,0-5.1199951-0.7399902-7.25-2.0099792
				c-0.3699951-0.2799988-0.9899902-0.730011-1.8399963-1.3000183c-3.1000061-2.5999756-5.0700073-6.4899902-5.0700073-10.8499756
				C326.3680725,327.8399963,332.7280884,321.480011,340.5280762,321.480011z"/>
			<path class="st3" d="M368.1680908,260.0899963c9.6199951,0,17.4499817,7.8300171,17.4499817,17.4599915
				c0,9.6200256-7.8299866,17.4500122-17.4499817,17.4500122s-17.4599915-7.8299866-17.4599915-17.4500122
				C350.7080994,267.9200134,358.5480957,260.0899963,368.1680908,260.0899963z"/>
			<path class="st3" d="M443.5080872,468.730011v7.9499817c0,0.0700073-0.0499878,0.1300049-0.1300049,0.1300049h-57.2099915
				c-0.0599976,0-0.1199951-0.0599976-0.1199951-0.1300049v-7.9499817c0-0.0700073,0.0599976-0.1200256,0.1199951-0.1200256
				h11.3699951h34.4899902h11.3500061C443.4580994,468.6099854,443.5080872,468.6600037,443.5080872,468.730011z"/>
			<path class="st3" d="M443.5080872,525.1400146v7.289978h-57.4599915v-7.289978
				c0-0.0599976,0.0599976-0.1099854,0.1199951-0.1099854h57.2099915
				C443.4580994,525.0300293,443.5080872,525.0800171,443.5080872,525.1400146z"/>
			<path class="st3" d="M311.9380798,471.5100098c3.8999939,0,7.0700073,3.1699829,7.0700073,7.0499878
				c0,3.8999939-3.1700134,7.0700073-7.0700073,7.0700073c-3.8800049,0-7.0499878-3.1700134-7.0499878-7.0700073
				C304.888092,474.6799927,308.058075,471.5100098,311.9380798,471.5100098z"/>
		</g>
		<path class="st4" d="M326.1180725,476.3800049c0.1000061,0.7200012,0.1600037,1.4400024,0.1600037,2.1799927
			c0,7.9100037-6.4299927,14.3399963-14.3399963,14.3399963c-7.8899841,0-14.3200073-6.4299927-14.3200073-14.3399963
			c0-3.7000122,1.4100037-7.0799866,3.7200012-9.6199951c0.1600037-0.1799927,0.3300171-0.3600159,0.5-0.5299988
			c2.6000061-2.5800171,6.1700134-4.1799927,10.1000061-4.1799927c6.9200134,0,12.7099915,4.9299927,14.0500183,11.4499817
			C326.0380859,475.9100037,326.0780945,476.1499939,326.1180725,476.3800049z M319.0080872,478.5599976
			c0-3.8800049-3.1700134-7.0499878-7.0700073-7.0499878c-3.8800049,0-7.0499878,3.1699829-7.0499878,7.0499878
			c0,3.8999939,3.1699829,7.0700073,7.0499878,7.0700073C315.8380737,485.6300049,319.0080872,482.4599915,319.0080872,478.5599976z
			"/>
		<path class="st4" d="M491.2180786,351.0299988c1.3600159,1.5599976,2.0299988,3.5599976,1.8800049,5.6300049
			c-0.1499939,2.0599976-1.0899963,3.9499817-2.6600037,5.2999878l-8.2200012,7.1199951
			c-1.4599915,1.2700195-3.269989,1.8900146-5.0700073,1.8900146c-2.1699829,0-4.3299866-0.8999939-5.8599854-2.6700134
			l-13.7799988-15.8999939l-5.2099915,3.1100159l7.7200012,15.6499939c0.9899902,2,1.1299744,4.2900085,0.4099731,6.4100037
			c-0.7199707,2.1300049-2.2299805,3.8399963-4.2399902,4.8399963l-8.5799866,4.230011
			C446.4280701,387.2200012,445.1580811,387.5,443.9080811,387.5c-3.1000061,0-6.0899963-1.7200012-7.5499878-4.6799927
			l-9.3300171-18.9299927l-3.1900024,0.8999939v20.6399841c0,4.7600098-3.8699951,8.6300049-8.6299744,8.6300049h-9.1100159
			c-4.7600098,0-8.6300049-3.8699951-8.6300049-8.6300049V368l-7.5499878-5.4899902
			c-0.9400024-0.6800232-1.4900208-1.7700195-1.4900208-2.9400024v-14.6799927
			c-0.6399841-2.4900208,0.5300293-5.25,3.5800171-8.4000244h-4.0800171c-1.4099731,0-2.6999817-0.8199768-3.289978-2.0899963
			l-0.230011-0.5v21.2000122c0,4.4700012-3.6399841,8.1099854-8.1099854,8.1099854h-14.6700134
			c-4.4199829,0-8.019989-3.6000061-8.019989-8.019989v-2.6000061c-3.6300049,2.8000183-8.1600037,4.4899902-13.0800171,4.4899902
			c-3.8899841,0-7.519989-1.0599976-10.6699829-2.8799744c-0.25-0.1100159-0.4900208-0.25-0.7200012-0.4300232
			c0,0-0.0200195-0.019989-0.0400085-0.0299988c-0.5700073-0.3599854-1.1300049-0.75-1.6700134-1.1699829
			c-4.9299927-3.2700195-19.3999939-11.5100098-28.6299744-2.2900085
			c-12.5899963,12.6100159-12.5899963,27.7900085-12.5899963,48.8099976c0,21.1900024,4.289978,35.1000061,12.3899841,40.2000122
			c5.3699951,3.3699951,12.8699951,2.9799805,22.2900085-1.1499939v-30.9200134c0-6.480011,5.2799988-11.769989,11.769989-11.769989
			h82.5500183h58.2299805c6.5,0,11.7799988,5.289978,11.7799988,11.769989v35.3800049
			c0,6.4899902-5.2799988,11.769989-11.7799988,11.769989h-31.4199829v4.230011
			c0,0.9499817-0.1300049,1.8599854-0.3800049,2.7399902h1.7399902c4.0899963,0,7.3999939,3.3099976,7.3999939,7.3900146v7.9499817
			c0,4.0899963-3.3099976,7.3999939-7.3999939,7.3999939h-57.2099915c-4.0700073,0-7.3900146-3.3099976-7.3900146-7.3999939
			v-7.9499817c0-4.0800171,3.3200073-7.3900146,7.3900146-7.3900146h1.75c-0.25-0.8800049-0.3900146-1.7900085-0.3900146-2.7399902
			v-4.230011h-18.289978v17.7799988c2.9599915,1.25,5.039978,4.1799927,5.039978,7.5899963v19.460022
			c0,1.6900024-0.519989,3.2799988-1.4100037,4.5899963c0.8900146,1.3099976,1.4100037,2.8999939,1.4100037,4.6000061v23.0799561
			c0,0.3200073-0.019989,0.6500244-0.0699768,0.960022h4.5699768v-7.289978c0-4.0700073,3.3200073-7.3800049,7.3900146-7.3800049
			h57.2099915c4.0899963,0,7.3999939,3.3099976,7.3999939,7.3800049v7.289978h10.7700195
			c9.8299866,0,17.8299866,8,17.8299866,17.8300171v15.3900146c0,9.8199463-8,17.8299561-17.8299866,17.8299561H238.6980896
			c-9.8300018,0-17.8200073-8.0100098-17.8200073-17.8299561v-15.3900146c0-9.8300171,7.9900055-17.8300171,17.8200073-17.8300171
			h12.8600006c2.6599884-4.7700195,10.1100006-18.0700073,18.1599884-31.9599915
			c-7.1999817-8.0400085-30.1899872-38.9299927-30.1899872-105.980011c0-47.1099854,22.0800018-84.1799927,40.5999908-106.9899902
			c20-24.6300049,39.7399902-38.0099945,40.5700073-38.5800018c0.6099854-0.3999939,1.3099976-0.6100006,2.0299988-0.6100006
			h32.6699829c1.75-2.4599915,4.6200256-4.0699921,7.8600159-4.0699921h13.8699951v-36.8700104c0-0.0099945,0-0.019989,0-0.0299988
			c0-0.2099915,0.0400085-0.4199982,0.0700073-0.6299896c0.0100098-0.0500031,0.0299988-0.1100006,0.0400085-0.1700134
			c0.039978-0.1599884,0.0799866-0.3199921,0.1399841-0.4899902c0.019989-0.0400085,0.0299988-0.0800018,0.0599976-0.1200104
			c0.0700073-0.1599884,0.1400146-0.3199921,0.230011-0.469986l9.0099792-14.5v-56.8000031
			c0-2.0100098,1.6300049-3.6399994,3.6400146-3.6399994h37.6600037c2.019989,0,3.6399841,1.6299896,3.6399841,3.6399994v57.019989
			l6.8300171,14.6700134c0.0100098,0.0099945,0.0100098,0.0299988,0.019989,0.0399933
			c0.1000061,0.2599945,0.2000122,0.5200043,0.25,0.8000031c0.0100098,0.0500031,0.0100098,0.1100006,0.0200195,0.1600037
			c0.019989,0.1799927,0.0499878,0.3499908,0.0499878,0.519989v104.2700195
			c15.1799927-5.0200195,24.3200073-5.3500061,27.2399902-0.980011l7.9900208,7.9899902
			c0.5999756,0.6000061,0.9599915,1.3800049,1.0499878,2.2099915l1.3500061,13.0800171L491.2180786,351.0299988z
			 M485.8380737,356.1400146c0.0100098-0.1300049-0.019989-0.25-0.1199951-0.3500061l-16.6600037-19.2400208
			c-0.0999756-0.0999756-0.1999817-0.1599731-0.3299866-0.1699829c-0.0100098,0-0.0299988,0-0.0400085,0
			c-0.1199951,0-0.2200012,0.0400085-0.3099976,0.1099854l-8.2200012,7.1300049
			c-0.1900024,0.1700134-0.2099915,0.4700012-0.0499878,0.6700134l16.6799927,19.25
			c0.1799927,0.1999817,0.480011,0.2200012,0.6700134,0.039978l8.2199707-7.1199951
			C485.7780762,356.3800049,485.8380737,356.269989,485.8380737,356.1400146z M477.9380798,442.6000061v-35.3800049
			c0-2.4700012-2.0100098-4.5-4.5-4.5H332.6580811c-2.480011,0-4.5,2.0299988-4.5,4.5v35.3800049c0,2.4700012,2.019989,4.5,4.5,4.5
			h16.6700134h16.269989h25.5700073h47.2200012h35.0499878
			C475.9280701,447.1000061,477.9380798,445.0700073,477.9380798,442.6000061z M472.0980835,565.6500244v-15.3900146
			c0-5.8200073-4.7399902-10.5599976-10.5499878-10.5599976h-14.8399963c-1,0.5100098-2.1300049,0.7999878-3.3300171,0.7999878
			h-57.2099915c-1.1900024,0-2.3099976-0.289978-3.3099976-0.7999878h-16.8099976H348.888092h-95.1800079l-0.0099945,0.0100098
			c-0.0100098,0-0.0100098-0.0100098-0.0299988-0.0100098h-14.9700012c-5.8200073,0-10.5400085,4.7399902-10.5400085,10.5599976
			v15.3900146c0,5.8099976,4.7200012,10.5499878,10.5400085,10.5499878h222.8500061
			C467.3580933,576.2000122,472.0980835,571.460022,472.0980835,565.6500244z M468.6080933,329.1199951l-0.6400146-6.2399902
			l-3.4799805-3.480011c-1.9700012,2.4100037-4.7700195,4.6300049-7.2600098,6.4100037
			c-6.2799988,4.5299988-15.1000061,9.3999939-24.8200073,13.6900024s-19.25,7.5299988-26.8399963,9.1199951
			c-2.6300049,0.5500183-5.6799927,1.0700073-8.5,1.0700073c-0.4599915,0-0.9200134-0.0100098-1.3699951-0.0400085v8.0700073
			l2.1300049,1.5499878c1.0599976-3.5599976,4.3699951-6.1699829,8.269989-6.1699829h9.1100159
			c3.25,0,6.0599976,1.7999878,7.5499878,4.4499817l2.0799866-0.5999756
			c0.1600037-2.9200134,1.8600159-5.6700134,4.6600037-7.0500183l8.5700073-4.2299805
			c3.980011-1.960022,8.7799988-0.4700012,10.980011,3.3099976l4.1099854-2.4500122
			c-1.0100098-2.9100037-0.230011-6.269989,2.25-8.3999939L463.6080933,331
			C465.0180969,329.7799988,466.7780762,329.1300049,468.6080933,329.1199951z M458.8480835,314.8599854
			c-3.0100098-0.0999756-9.7799988,0.8500061-20.7000122,4.6800232l-8.0999756,13.039978
			C446.5780945,325.2099915,456.0380859,318.1900024,458.8480835,314.8599854z M453.5480957,375.230011
			c0.0699768-0.2000122,0.1099854-0.5200195-0.0599976-0.8600159l-10.6800232-21.6699829
			c-0.1999817-0.3900146-0.5999756-0.6300049-1.019989-0.6300049c-0.1600037,0-0.3399963,0.039978-0.5,0.1199951
			l-8.5799866,4.2200012c-0.5600281,0.2799988-0.7900085,0.9700012-0.5100098,1.519989l10.6799927,21.6600037
			c0.269989,0.5700073,0.9599915,0.8000183,1.519989,0.519989l8.5700073-4.2299805
			C453.3280945,375.7099915,453.4680786,375.4400024,453.5480957,375.230011z M443.5080872,532.4299927v-7.289978
			c0-0.0599976-0.0499878-0.1099854-0.1300049-0.1099854h-57.2099915c-0.0599976,0-0.1199951,0.0499878-0.1199951,0.1099854
			v7.289978H443.5080872z M443.5080872,476.6799927v-7.9499817c0-0.0700073-0.0499878-0.1200256-0.1300049-0.1200256h-11.3500061
			h-34.4899902h-11.3699951c-0.0599976,0-0.1199951,0.0500183-0.1199951,0.1200256v7.9499817
			c0,0.0700073,0.0599976,0.1300049,0.1199951,0.1300049h57.2099915
			C443.4580994,476.8099976,443.5080872,476.75,443.5080872,476.6799927z M434.7480774,458.6000061v-4.230011H394.808075v4.230011
			c0,1.5099792,1.2200012,2.7399902,2.730011,2.7399902h34.4899902
			C433.5280762,461.3399963,434.7480774,460.1099854,434.7480774,458.6000061z M431.5180969,313.8299866V211.0099945h-47.1100159
			v36.8600006v11.0500183c5.1900024,4.539978,8.4899902,11.1999817,8.4899902,18.6299744
			c0,7.4200134-3.2999878,14.0800171-8.4899902,18.6200256v17.6599731H431.5180969z M429.4480896,203.7400055l-3.7799988-8.1100006
			h-33.3200073l-5.0400085,8.1100006H429.4480896z M423.5780945,329.2200012l5.039978-8.1100159h-42.1499939l3.7799988,8.1100159
			H423.5780945z M424.3480835,188.3600006v-50.5599976h-30.3899841v50.5599976H424.3480835z M420.558075,336.4899902h-17.039978
			c-4.1000061,2.8200073-6.1400146,4.7700195-7.1000061,5.9500122
			C399.9980774,342.5599976,408.4580994,341.0599976,420.558075,336.4899902z M416.5680847,385.4299927V361.730011
			c0-0.75-0.6099854-1.3600159-1.3599854-1.3600159h-9.1100159c-0.75,0-1.3599854,0.6100159-1.3599854,1.3600159v23.6999817
			c0,0.75,0.6099854,1.3500061,1.3599854,1.3500061h9.1100159
			C415.9580994,386.7799988,416.5680847,386.1799927,416.5680847,385.4299927z M385.6180725,277.5499878
			c0-9.6299744-7.8299866-17.4599915-17.4499817-17.4599915s-17.4599915,7.8300171-17.4599915,17.4599915
			c0,9.6200256,7.8399963,17.4500122,17.4599915,17.4500122S385.6180725,287.1700134,385.6180725,277.5499878z
			 M377.1280823,355.1000061v-37.6300049v-16.8800049c-2.7799988,1.0800171-5.7999878,1.6799927-8.9599915,1.6799927
			c-2.5400085,0-4.980011-0.3899841-7.2900085-1.0899963v27.7700195c0.7000122,2.1099854,1.0800171,4.3499756,1.0800171,6.6900024
			c0,2.3399963-0.3800049,4.5799866-1.0800171,6.6899719v12.8600159c0,0.4100037,0.3399963,0.7399902,0.75,0.7399902h14.6700134
			C376.7580872,355.9299927,377.1280823,355.5599976,377.1280823,355.1000061z M377.1280823,254.5v-2.9900055h-13.8699951
			c-1.3099976,0-2.3800049,1.0700073-2.3800049,2.3800049v0.0200043c2.3099976-0.7100067,4.75-1.0899963,7.2900085-1.0899963
			C371.3280945,252.8200073,374.3480835,253.4199982,377.1280823,254.5z M366.9980774,531.4699707v-23.0799561
			c0-0.5300293-0.4199829-0.960022-0.9499817-0.960022H348.888092c-0.5299988,0-0.960022,0.4299927-0.960022,0.960022v23.0799561
			c0,0.5300293,0.4300232,0.960022,0.960022,0.960022h17.1600037C366.5780945,532.4299927,366.9980774,532,366.9980774,531.4699707z
			 M366.9980774,499.2000122v-19.460022c0-0.5299988-0.4199829-0.9599915-0.9499817-0.9599915h-0.4500122h-16.269989h-0.4400024
			c-0.5299988,0-0.960022,0.4299927-0.960022,0.9599915v19.460022c0,0.5299988,0.4300232,0.9499817,0.960022,0.9499817h17.1600037
			C366.5780945,500.1499939,366.9980774,499.730011,366.9980774,499.2000122z M361.9580994,471.5100098v-17.1400146h-8.9900208
			v17.1400146H361.9580994z M353.6080933,318.7000122V297.519989c-6.1600037-4.5099792-10.1700134-11.7799988-10.1700134-19.9700012
			c0-8.1999817,4.0100098-15.4700012,10.1700134-19.9700012v-1.9999847h-29.7400208
			c-4.0299988,2.8799896-21.25,15.7100067-38.2299805,36.6800079
			c-17.7200012,21.8599854-38.8300018,57.3499756-38.8300018,102.2299805c0,59.7799988,19.1800079,89.730011,26.8099823,99.2700195
			c3.0500183-5.1800232,6.0900269-10.2799988,8.9000244-14.8600159c13.5799866-22.1600037,22.3199768-26.5,32.8099976-26.5
			c3.6499939,0,6.8299866,0.7900085,9.539978,2.3600159c8.1500244,4.7399902,12.1400146,16.6099854,12.1400146,35.9499817
			v41.7200012h3.7099915c-0.0499878-0.3099976-0.0700073-0.6400146-0.0700073-0.960022v-23.0799561
			c0-1.7000122,0.5200195-3.2900085,1.4200134-4.6000061c-0.8999939-1.3099976-1.4200134-2.8999939-1.4200134-4.5899963v-19.460022
			c0-3.4100037,2.0800171-6.3399963,5.0400085-7.5899963v-17.7799988h-13.0299988
			c-2.0100098,0-3.9100037-0.5100098-5.5700073-1.3999939c-2.7599792-1.5-4.8699951-4.0700073-5.7399902-7.1600037
			c-5.1900024,2.019989-9.9599915,3.0299988-14.2999878,3.0299988c-4.6000061,0.0100098-8.710022-1.1300049-12.3099976-3.3899841
			c-10.4900208-6.6000061-15.8100281-22.2000122-15.8100281-46.3600159c0-21.9100037,0-39.2200012,14.730011-53.9400024
			c8.0500183-8.0499878,18.0500183-7.3200073,26.0299988-4.5700073c-0.3800049-1.5899963-0.6000061-3.2299805-0.6000061-4.9399719
			c0-11.8100281,9.6200256-21.4300232,21.4400024-21.4300232
			C345.4480896,314.2099915,349.9780884,315.8900146,353.6080933,318.7000122z M354.6880798,335.6400146
			c0-7.8000183-6.3500061-14.1600037-14.1600037-14.1600037c-7.7999878,0-14.1600037,6.3599854-14.1600037,14.1600037
			c0,4.3599854,1.9700012,8.25,5.0700073,10.8499756c0.8500061,0.5700073,1.4700012,1.0200195,1.8399963,1.3000183
			c2.1300049,1.269989,4.6000061,2.0099792,7.25,2.0099792
			C348.3380737,349.7999878,354.6880798,343.4599915,354.6880798,335.6400146z M329.7280884,532.4299927v-41.7200012
			c0-5.9199829-0.3800049-10.6999817-1.019989-14.5699768c-0.0400085-0.2600098-0.0800171-0.5100098-0.1300049-0.7600098
			c-2.8300171-15.7099915-10.1100159-15.7099915-13.25-15.7099915c-4.6600037,0-9.2600098,0.8199768-15.8500061,8.0499878
			c-0.2099915,0.230011-0.4200134,0.4700012-0.6400146,0.7200012c-2.9299927,3.3500061-6.2399902,7.9400024-10.1199951,14.2600098
			c-3.5299988,5.7599792-7.4400024,12.3499756-11.2599792,18.9199829c-0.0500183,0.1000061-0.1200256,0.2099915-0.1800232,0.3099976
			c-6.9799805,11.9899902-13.6699829,23.8599854-17.3899841,30.5H329.7280884z"/>
	</g>
</g>
<g id="Layer_5">
</g>
<g id="Layer_4">
</g>
<g id="Layer_3">
</g>
<g id="Layer_2">
</g>
</svg>
